<?xml version="1.0" encoding="utf-8"?>
<!DOCTYPE svg PUBLIC "-//W3C//DTD SVG 20010904//EN" "http://www.w3.org/TR/2001/REC-SVG-20010904/DTD/svg10.dtd">
<svg version="1.0" xmlns="http://www.w3.org/2000/svg" width="1156pt" height="1042pt" viewBox="0 0 1156 1042" preserveAspectRatio="xMidYMid meet">
<g fill="#43C5A4FF">
<path d="M 279.67 851.33 C 279.30 850.97 279.00 703.36 279.00 523.31 L 279.00 195.95 L 488.75 196.27 L 698.50 196.58 L 710.50 198.78 C 731.84 202.70 755.00 209.07 755.00 211.02 C 755.00 211.49 755.85 211.81 756.88 211.73 C 759.31 211.55 767.09 215.04 766.48 216.03 C 766.22 216.45 766.71 217.06 767.56 217.38 C 768.41 217.71 768.85 217.57 768.55 217.08 C 768.25 216.59 768.90 216.42 770.01 216.71 C 771.12 217.00 772.27 217.63 772.57 218.11 C 772.86 218.59 772.29 218.69 771.30 218.33 C 770.31 217.97 769.82 218.04 770.22 218.47 C 770.61 218.91 772.01 219.39 773.33 219.53 C 775.31 219.75 788.31 227.10 790.00 228.96 C 790.27 229.26 793.14 231.48 796.37 233.88 C 805.63 240.77 818.39 253.56 817.48 255.04 C 816.98 255.84 817.09 256.06 817.78 255.64 C 819.02 254.87 822.19 258.88 821.38 260.19 C 821.09 260.66 821.45 260.93 822.18 260.77 C 822.90 260.62 823.44 261.27 823.37 262.21 C 823.29 263.15 823.74 263.83 824.37 263.71 C 824.99 263.59 825.44 264.28 825.36 265.24 C 825.29 266.20 825.61 266.74 826.07 266.46 C 827.23 265.74 829.84 271.15 829.23 273.00 C 828.95 273.82 829.09 274.16 829.54 273.74 C 830.81 272.56 835.66 282.27 840.91 296.50 C 849.33 319.33 851.04 328.78 851.71 356.12 C 852.55 390.05 847.32 417.50 835.06 443.50 C 829.63 455.02 811.98 478.72 809.82 477.39 C 809.34 477.09 809.07 477.29 809.23 477.83 C 809.38 478.36 807.70 480.38 805.50 482.30 C 803.30 484.23 801.73 486.01 802.00 486.28 C 802.27 486.54 808.46 490.46 815.74 494.98 C 823.97 500.09 828.74 503.64 828.33 504.35 C 827.97 504.98 828.01 505.20 828.42 504.84 C 829.98 503.44 842.35 513.57 841.31 515.39 C 840.96 516.00 841.05 516.17 841.50 515.76 C 842.62 514.74 845.14 516.97 844.33 518.27 C 843.98 518.84 844.17 519.02 844.75 518.66 C 846.08 517.83 853.20 526.05 862.08 538.69 C 865.88 544.08 869.38 548.98 869.86 549.56 C 871.34 551.37 873.10 555.00 872.50 555.00 C 872.18 555.00 872.84 555.98 873.96 557.19 C 875.79 559.15 876.47 561.05 876.12 563.25 C 876.05 563.66 876.40 564.00 876.89 564.00 C 878.10 564.00 881.24 570.80 880.55 571.93 C 880.24 572.42 880.47 572.99 881.06 573.19 C 882.33 573.61 887.88 589.99 890.83 602.00 C 898.63 633.75 898.86 680.84 891.36 712.00 C 888.12 725.47 879.66 748.22 875.00 756.00 C 874.51 756.83 873.16 759.25 872.00 761.38 C 863.96 776.21 845.51 797.73 831.50 808.62 C 828.75 810.75 825.96 813.01 825.30 813.63 C 823.20 815.60 806.33 826.00 805.23 826.00 C 804.64 826.00 804.02 826.34 803.83 826.75 C 802.91 828.83 779.23 838.79 769.50 841.19 C 767.30 841.73 764.60 842.56 763.50 843.03 C 762.40 843.50 759.92 844.22 758.00 844.62 C 756.08 845.03 754.05 845.46 753.50 845.58 C 746.65 847.10 725.35 850.23 716.64 851.00 C 704.12 852.10 280.76 852.43 279.67 851.33ZM 663.50 682.94 C 669.45 681.38 678.32 677.77 679.82 676.30 C 680.55 675.58 681.45 674.99 681.82 674.98 C 682.19 674.97 684.30 673.40 686.49 671.48 C 688.68 669.57 690.85 668.00 691.30 668.00 C 691.75 668.00 691.88 667.61 691.58 667.13 C 691.29 666.66 691.87 665.52 692.88 664.61 C 695.08 662.61 701.70 648.69 702.44 644.50 C 704.46 632.94 703.85 617.47 701.09 610.50 C 698.78 604.63 691.00 589.91 691.00 591.39 C 691.00 591.86 690.33 591.69 689.51 591.01 C 688.69 590.33 688.28 589.36 688.59 588.86 C 688.90 588.36 688.78 588.07 688.32 588.21 C 687.87 588.36 685.35 586.99 682.72 585.17 C 675.79 580.37 668.41 577.27 661.00 576.03 C 656.55 575.28 626.08 575.03 564.50 575.22 L 474.50 575.50 L 474.23 629.75 L 473.97 684.00 L 566.73 683.99 C 628.16 683.99 660.85 683.63 663.50 682.94ZM 641.22 442.93 C 642.72 442.81 643.76 442.42 643.54 442.07 C 643.33 441.72 645.62 440.14 648.63 438.56 C 659.24 433.01 664.93 422.47 665.77 406.83 C 666.38 395.50 664.14 385.19 659.57 378.25 C 657.72 375.44 656.49 372.84 656.85 372.48 C 657.21 372.13 657.05 371.98 656.50 372.16 C 655.06 372.63 650.87 369.46 651.76 368.58 C 652.17 368.17 652.05 367.92 651.50 368.04 C 649.37 368.46 647.09 367.95 645.82 366.75 C 645.09 366.06 643.60 365.42 642.50 365.33 C 641.40 365.23 637.58 364.68 634.00 364.10 C 629.84 363.42 600.05 363.03 551.25 363.02 L 475.00 363.00 L 475.00 385.75 C 474.99 398.26 474.95 415.93 474.91 425.00 C 474.87 434.07 474.87 442.08 474.91 442.78 C 474.98 443.82 490.67 443.98 556.75 443.61 C 601.71 443.36 639.72 443.05 641.22 442.93Z"/></g>
<g fill="#377869FF">
<path d="M 278.46 851.75 C 278.20 851.06 278.10 703.12 278.24 523.00 L 278.50 195.50 L 477.50 195.50 L 676.50 195.49 L 477.75 195.75 L 279.00 196.00 L 279.00 524.00 L 279.00 852.00 L 489.75 852.25 L 700.50 852.50 L 489.72 852.75 C 321.83 852.95 278.84 852.75 278.46 851.75Z"/></g>
</svg>
